<svg xmlns="http://www.w3.org/2000/svg" viewBox="0 0 96 96" role="img" aria-labelledby="title" fill="none">
  <title id="title">NeuroNav brain logo</title>
  <path
    fill="#000"
    d="M47.78 8c-6.83 0-12.94 3.34-16.66 8.47a18.3 18.3 0 0 0-7.89-1.78C13.35 14.69 6 22.04 6 31.01c0 5.58 2.66 10.55 6.79 13.71a14.34 14.34 0 0 0-1.88 7.18c0 7.88 6.4 14.28 14.28 14.28 2.07 0 4.02-.43 5.8-1.2.68 9.82 8.73 17.59 18.5 17.59 6.4 0 12.09-3.13 15.6-7.95a16.72 16.72 0 0 0 7.24 1.64c8.04 0 14.58-6.54 14.58-14.58 0-4.35-1.93-8.24-4.99-10.92 3.4-3.8 5.48-8.8 5.48-14.27C87.4 23.66 77.74 14 65.72 14c-2.24 0-4.4.34-6.43.98C55.9 10.93 52.18 8 47.78 8Z"
  />
  <path
    fill="#000"
    d="M37.9 24.64c-3.46-.43-6.66 2.21-7.07 5.88-.14 1.21-.07 2.42.28 3.58-2.96.68-5.1 3.2-5.1 6.21 0 3.54 2.87 6.41 6.41 6.41.24 0 .47-.01.71-.04v14.3c0 4.59 3.72 8.31 8.31 8.31 1.23 0 2.39-.28 3.44-.76a8.34 8.34 0 0 0 14.87-5.26V39.74c0-1.11.9-2.01 2.01-2.01s2.01.9 2.01 2.01v4.51a6.41 6.41 0 1 0 4.02-6.01v-5.52c0-5.47-4.44-9.91-9.91-9.91-1.03 0-2.03.16-2.97.45-.68-4.3-4.35-7.56-8.84-7.56-4.37 0-7.99 3.07-8.81 7.14Z"
  />
</svg>
