<?xml version="1.0" encoding="UTF-8"?>
<svg id="Layer_1" xmlns="http://www.w3.org/2000/svg" width="1024" height="1024" baseProfile="tiny" version="1.2" viewBox="0 0 1024 1024">
  <path d="M520.79,315.29c63.59-3.89,134.34,16.29,175.16,67.25,49.59,61.91,55.71,183.99-29.7,218.22-5.55,2.23-19.42,4.31-21.5,9.5-3.13,7.8,3.36,22.24,4.96,30.52,4.72,24.33,6.72,59.02-6.55,80.89-9.37,15.45-25.04,21.07-37.58,5.24-6.07-7.66-11.21-17.36-17.62-25.38-23.78-29.77-62.01-60.31-96.61-76.39-52.95-24.6-115.5-15.06-166.28-46.72-62.03-38.67-36.06-112.32.53-159.32,45.75-58.77,120.43-99.23,195.19-103.81ZM604,350.01c-103.6-37.11-229.7,22.06-280.52,115.97-.81,1.51-5.22,9.09-4.47,10.02,17.77-13.81,40.28-25.15,61.99-31.5,37.34-10.92,75.23-9.47,112.74-.16,27.44-33.76,58.01-65.5,96.58-86.51,3.93-2.14,8.45-3.5,12.24-5.72.93-.54,1.96.5,1.43-2.09ZM519.04,454.95c44.83,19.73,95.74,51.35,146.74,37.33,33.27-9.14,40.6-36.79,28.4-66.96-8.08-19.97-36.14-56.41-59.68-56.39-34.7.02-93.11,53.2-112.91,80.17-1.26,1.72-3,3.51-2.55,5.86ZM473,465c-46.52-10.17-92.81-2.15-132.32,24.18-19.99,13.33-38.13,29.85-22.1,54.73,13.5,20.94,35.31,21.48,56.09,12.26,32.52-14.44,61.42-44.13,83.84-71.16,3.77-4.54,10.62-11.99,13.53-16.47.8-1.23,1.23-1.99.95-3.55ZM709,499.01c-13.45,6.57-25.01,13.42-39.96,16.52-59.75,12.4-113.65-15.89-165.02-42.1l-3.29-.29c-30.37,35.82-58.76,71.98-100.05,96.03-4.16,2.42-9.3,4.29-13.38,6.61-1.1.62-1.72-.11-1.29,2.22,19.57,3.3,39.57,5.22,59.49,4,60.26-3.7,122.35-39.98,182.18-7.16,3.85,2.11,13.39,10.19,16.35,9.76,14.29-2.06,35.77-17.08,44.94-28.12,13.83-16.64,17.63-36.45,20.03-57.46ZM623.99,711c9.68-19.64,7.71-42.27,3.72-63.2-2.07-10.86-6.91-21.84-6.6-33.18.11-4.17,3.58-11.03,3.5-13.12-.17-4.24-14.47-9.87-18.4-11.2-38.36-13.01-79.31-.44-117.21,7.72.1,1.23,1.37,1.68,2.31,2.18,7.37,4,16.13,7.13,23.72,11.28,43.63,23.86,80.48,59.01,108.97,99.52Z"/>
  
  <path d="M709,499.01c-2.4,21.01-6.2,40.82-20.03,57.46-9.18,11.04-30.66,26.06-44.94,28.12-2.96.43-12.51-7.65-16.35-9.76-59.83-32.82-121.92,3.46-182.18,7.16-19.92,1.22-39.92-.7-59.49-4-.43-2.33.19-1.59,1.29-2.22,4.08-2.32,9.22-4.18,13.38-6.61,41.29-24.05,69.68-60.21,100.05-96.03l3.29.29c51.37,26.21,105.27,54.49,165.02,42.1,14.96-3.1,26.51-9.96,39.96-16.52Z" fill="none" stroke="none"/>
  <path d="M604,350.01c.52,2.6-.51,1.55-1.43,2.09-3.79,2.23-8.31,3.59-12.24,5.72-38.57,21.01-69.15,52.75-96.58,86.51-37.52-9.31-75.4-10.76-112.74.16-21.71,6.35-44.22,17.68-61.99,31.5-.76-.94,3.65-8.52,4.47-10.02,50.82-93.91,176.93-153.08,280.52-115.97Z" fill="none" stroke="none"/>
  <path d="M519.04,454.95c-.44-2.35,1.29-4.14,2.55-5.86,19.8-26.96,78.21-80.15,112.91-80.17,23.54-.01,51.6,36.42,59.68,56.39,12.2,30.17,4.87,57.82-28.4,66.96-51,14.02-101.91-17.6-146.74-37.33Z" fill="none" stroke="none"/>
  <path d="M473,465c.27,1.56-.15,2.31-.95,3.55-2.92,4.48-9.76,11.93-13.53,16.47-22.42,27.03-51.32,56.72-83.84,71.16-20.77,9.22-42.59,8.68-56.09-12.26-16.03-24.88,2.1-41.4,22.1-54.73,39.51-26.33,85.8-34.35,132.32-24.18Z" fill="none" stroke="none"/>
  <path d="M623.99,711c-28.49-40.5-65.33-75.66-108.97-99.52-7.59-4.15-16.35-7.29-23.72-11.28-.93-.51-2.2-.95-2.31-2.18,37.9-8.16,78.85-20.73,117.21-7.72,3.92,1.33,18.22,6.96,18.4,11.2.09,2.1-3.39,8.95-3.5,13.12-.31,11.34,4.53,22.33,6.6,33.18,3.99,20.93,5.96,43.56-3.72,63.2Z" fill="none" stroke="none"/>
</svg>
