<?xml version="1.0" encoding="UTF-8"?>
<svg id="Layer_1" xmlns="http://www.w3.org/2000/svg" width="1024" height="1024" baseProfile="tiny" version="1.2" viewBox="256 256 512 512">
  <path d="M389.8,207.3l243.75-.34c11.49.8,18.1,3.93,24.26,13.74l48.19,91.81,120.55.45c36.44,3.16,66.65,30.36,72.18,66.82,2.97,118.09.4,236.54,1.32,354.77-1.57,43.1-34.53,76.82-77.5,79.5H199.46c-36.92-2.47-67.47-29.49-74.2-65.8-2.94-119.06-.38-238.56-1.3-357.79,2.68-40.79,30.97-73.73,72.51-77.49l123.55-.45,50.55-94.45c5.06-6.28,10.97-10.29,19.23-10.77ZM396.67,242.17c-1.44.49-3.3,4.32-4.18,5.82-16.05,27.33-28.5,60.04-45.29,86.71-4.9,7.78-11.19,12.53-20.66,13.34-40.65,3.49-87.63-4.12-127.91.09-24.18,2.52-40.09,23.8-40.66,47.34v337.08c1.05,14.69,6.23,27.85,18.13,36.87,15.96,12.1,34.01,8.49,52.36,8.54,189.93.52,380.5,2.02,570.08-.01,11.79-.13,24.23,1.55,35.9-2,15.72-4.78,28.1-18.76,31.11-34.89,2.64-118.19,1.94-237.17.35-355.45-2.91-18.17-19.79-35.75-38.41-37.59-40.37-4.01-87.49,3.74-128.03.03-5.88-.54-11.67-3.06-15.99-7.01l-53.12-98.88h-233.68Z" fill="#000"/>
  <path d="M658.09,459.93c12.6-2.12,25.77-8.01,38.18-10.18,1.25-.22,1.27-1.33,2.7.75l-37.99,95.51-77.96-63.5,41.98-12.51-10.48-16c-54.77-64.95-156.35-64.8-208.93,3.1-54.37,70.22-28.29,174.2,54.45,207.38,75.89,30.44,160.21-13.59,179.08-92.36,4.44.49,32.14,4,33.47,5.83,1.19,1.64-2.46,12.15-3.32,14.82-32.59,101.72-149.41,147.72-242.93,94.41-105.02-59.87-112.32-215.32-14.05-285.39,82.67-58.95,199.12-31.2,245.81,58.15Z" fill="#000"/>
</svg>
