<svg xmlns="http://www.w3.org/2000/svg" viewBox="0 0 64 64" role="img" aria-labelledby="title desc">
  <title id="title">NeuroNav Logo</title>
  <desc id="desc">Stylized brain orbiting a navigation marker</desc>
  <defs>
    <linearGradient id="gradient" x1="12" y1="12" x2="52" y2="52" gradientUnits="userSpaceOnUse">
      <stop offset="0" stop-color="#7f9cf5" />
      <stop offset="1" stop-color="#43c6ac" />
    </linearGradient>
  </defs>
  <circle cx="32" cy="32" r="30" fill="#101322" />
  <path
    d="M32 12c-9.94 0-18 7.28-18 16.26 0 9.69 10.44 14.7 14.48 16.43L32 52l3.52-7.3C39.56 43 50 37.95 50 28.26 50 19.28 41.94 12 32 12Zm0 6.4c6.47 0 11.72 4.65 11.72 10.39 0 6.79-7.63 10.56-9.8 11.42l-1.92 0.77-1.92-0.77c-2.17-0.86-9.8-4.63-9.8-11.42 0-5.74 5.25-10.39 11.72-10.39Z"
    fill="url(#gradient)"
  />
  <path
    d="M32 21.5a6.5 6.5 0 0 0-6.5 6.5c0 5.67 6.5 8.3 6.5 8.3s6.5-2.63 6.5-8.3A6.5 6.5 0 0 0 32 21.5Zm0 3a3.5 3.5 0 0 1 3.5 3.5c0 2.18-2.17 3.81-3.5 4.4-1.33-0.59-3.5-2.22-3.5-4.4A3.5 3.5 0 0 1 32 24.5Z"
    fill="#ffffff"
    opacity="0.85"
  />
  <path
    d="M16 32a1.5 1.5 0 0 1 0-3c6 0 8.54-2.51 10.53-4.47C28.41 22.68 30.07 21 33 21s4.59 1.68 6.47 3.53C41.46 26.49 44 29 50 29a1.5 1.5 0 0 1 0 3c-7.38 0-10.57-3.25-12.68-5.31C35.47 24.88 34.33 24 33 24s-2.47 0.88-4.32 2.69C26.57 28.75 23.38 32 16 32Z"
    fill="#8ef6ff"
    opacity="0.6"
  />
</svg>
