<?xml version="1.0" encoding="UTF-8"?>
<svg id="Layer_1" xmlns="http://www.w3.org/2000/svg" width="1024" height="1024" baseProfile="tiny" version="1.2" viewBox="0 0 1024 1024">
  <title id="title">NeuroNav Logo</title>
  <path d="M528,403c-3.01,3.08-6.55,5.77-9.51,8.99-3.82,4.16-23.17,30.42-25.12,30.82-1.42.3-23.55-5.85-28.17-6.51-46.69-6.65-88.04,2.36-128.5,25.9-1.9,1.1-16.59,11.87-16.69,10.31-.06-.91,8.26-13.37,9.59-15.41,57.18-87.49,169.66-136.57,272.4-108.09-28.05,12.51-50.54,30.52-71.99,51.99-.64.64-1.33,1.31-2,2Z" fill="#fff"/>
  <path d="M564,642c-23.03-18.88-47.11-33.19-74.99-43.99,35.47-7.9,64.85-17.56,101.63-9.14,4.27.98,27.46,8.4,29.39,10.6,1.73,1.97-1.11,18.53-1,23.01.57,23.6,11.93,45.63,7.52,69.56-.35,1.92-3.9,13.63-4.56,13.95-2.04.98-23.9-31.97-27.48-36.01-9.21-10.4-19.07-18.29-29.51-26.99-.36-.3-.64-.71-1-1Z" fill="#fff"/>
  <path d="M702,577c60.9-70.41,28.21-185.91-46.68-231.82-118.56-72.69-299.5-5.25-356.85,116.8-41.09,87.45,14.49,124.54,92.5,140.55,70.75,14.52,109.19,15.72,166.04,66.96,21.28,19.18,33.77,44.77,51.47,61.53,13.14,12.44,21.26,6.13,30.49-6.55,10.51-14.42,14.95-34.25,14.06-52-.65-12.89-13.5-58.39-6.59-67.53.62-.81,12.78-2.54,15.55-3.45,15.02-4.92,28.55-13.7,40.01-24.49-10.35,11.97-22.63,20.63-37.79,25.71-3.16,1.06-14.95,2.48-15.72,3.28-7.36,7.56,6.29,57.16,6.55,69.48.29,13.71-3.77,31.63-10.52,43.55-27.07,47.85-46.11-1.54-65.55-24.48-58.88-69.49-106.89-73.4-190.15-90.85-71.84-15.06-129.44-49.17-96.3-132.66,53.47-134.7,263.22-209.91,380.95-114.98,59.96,48.35,89.79,163.28,28.54,220.96Z"/>
  <path d="M710.99,490c-.47,25.07-9.1,52.6-26.48,71.01-33.52,35.51-55.15,9.83-92.5,2.49-62.56-12.3-105.86,18.99-164.51,19.58-14.81.15-30.7-3.08-45.5-4.08,49.13-22.89,86.41-63.12,116.61-107.08,64.96,30.06,148.93,78.55,212.38,18.09ZM708.99,494c-63.29,56.26-145.76,10.04-209.36-19.9-30.28,41.51-64.71,80.81-111.62,103.88,9.09.7,18.34,2.71,27.46,3.05,62.03,2.3,111.85-31.12,174.73-19.73,19.15,3.47,47.19,18.97,64.65,16.04,31.63-5.31,54.96-53.7,54.14-83.35Z"/>
  <path d="M530,401c21.46-21.46,43.94-39.48,71.99-51.99-102.74-28.48-215.22,20.59-272.4,108.09-1.33,2.04-9.65,14.5-9.59,15.41.1,1.56,14.79-9.21,16.69-10.31,40.47-23.54,81.82-32.54,128.5-25.9,4.62.66,26.76,6.81,28.17,6.51,1.95-.41,21.3-26.66,25.12-30.82,2.96-3.22,6.5-5.91,9.51-8.99-11.87,12.25-22.31,27.48-32.73,41.01-15.38-1.89-30.17-7.03-45.73-8.05-47.42-3.12-96.72,12.68-133.04,43.03,4.42-13.59,15.17-28.5,24.11-39.89,52.37-66.78,139.11-107.78,224.76-98.96,4.05.42,40.66,6.68,40.62,9.36-.03,1.64-25.23,12.23-29.29,14.68-15.88,9.6-33.56,23.72-46.68,36.82Z"/>
  <path d="M530,401c-.66.66-1.36,1.34-2,2,.67-.69,1.36-1.36,2-2Z"/>
  <path d="M668.6,386.39c15.79,16.67,44.22,59.83,30.65,82.36-16.2,26.91-61.24,28.46-88.43,22.93-10.96-2.23-92.28-33.17-93.76-38.28-.37-1.29,14.68-18.48,16.91-20.93,22.13-24.32,52.01-48.62,82.37-61.63,3.3-1.41,18.7-7.77,20.97-7.55,5.92.58,26.53,18.08,31.29,23.1ZM636.5,365.44c-4.32-.12-26.05,9.8-31.17,12.39-19.55,9.9-37.93,24.19-53.86,39.14-4.01,3.77-32.62,33.13-32.45,35.53.18,2.7,43.67,20.82,49.01,22.96,36.13,14.51,81.05,28.92,116.86,4.94,27.63-18.51,15.25-43.81,1.52-67.32-7.04-12.05-35.59-47.24-49.92-47.64Z"/>
  <path d="M564,642c-14.65-11.91-37.15-25.17-54.33-33.17-4.38-2.04-25.76-8.75-26.67-9.84-.33-.39.59-1.07.98-1.5,40.53-9.24,73.28-19.95,115.01-7.97,3.08.89,24.36,8.36,25,9.53s-3.19,20.4-2.97,26.44c.66,17.96,9.07,37.28,8.75,55.02-.07,3.71-4.2,27.48-8.27,27.48-2.39,0-24.22-32.64-28.99-37.99-7.37-8.26-19.06-20-27.51-26.99,10.44,8.7,20.3,16.6,29.51,26.99,3.57,4.03,25.43,36.99,27.48,36.01.66-.32,4.21-12.03,4.56-13.95,4.4-23.93-6.95-45.97-7.52-69.56-.11-4.48,2.73-21.04,1-23.01-1.93-2.2-25.13-9.63-29.39-10.6-36.77-8.41-66.15,1.25-101.63,9.14,27.89,10.8,51.96,25.1,74.99,43.99Z"/>
  <path d="M565,643c-.36-.3-.64-.71-1-1,.36.29.64.7,1,1Z"/>
  <polygon points="342.5 462 343 462.5 342.5 463 342.5 462"/>
  <polygon points="321.5 464 322 464.5 321.5 465 321.5 464"/>
  <path d="M476,464.01c2.26,2.38-38.46,47.07-41.98,50.52-27.11,26.53-86.34,75.41-117.45,30.41-16.93-24.49,3.47-41.05,22.53-54.33,32.82-22.88,72.25-34.43,112.38-30.58,2.98.29,23.66,3.09,24.52,3.99ZM474,465.01c-46.98-10.41-94.42-.43-133.73,26.76-22.02,15.23-42.75,35.93-15.28,59.74,23.33,20.22,44.79,8.14,67.31-5.71,32.44-19.95,58.55-51.1,81.7-80.79Z"/>
  <path d="M708.99,494c.82,29.64-22.51,78.03-54.14,83.35-17.46,2.93-45.5-12.57-64.65-16.04-62.88-11.39-112.7,22.03-174.73,19.73-9.11-.34-18.37-2.35-27.46-3.05,46.91-23.07,81.34-62.37,111.62-103.88,63.6,29.94,146.07,76.16,209.36,19.9Z" fill="#fff"/>
  <path d="M636.5,365.44c14.33.4,42.88,35.59,49.92,47.64,13.73,23.51,26.11,48.81-1.52,67.32-35.81,23.99-80.73,9.58-116.86-4.94-5.34-2.15-48.83-20.26-49.01-22.96-.16-2.4,28.44-31.76,32.45-35.53,15.93-14.96,34.3-29.24,53.86-39.14,5.12-2.59,26.85-12.51,31.17-12.39Z" fill="#fff"/>
  <path d="M474,465.01c-23.15,29.69-49.25,60.84-81.7,80.79-22.52,13.85-43.98,25.92-67.31,5.71-27.47-23.8-6.73-44.51,15.28-59.74,39.31-27.19,86.74-37.17,133.73-26.76Z" fill="#fff"/>
</svg>
