<?xml version="1.0" encoding="UTF-8"?>
<svg id="Layer_1" xmlns="http://www.w3.org/2000/svg" width="1024" height="1024" baseProfile="tiny" version="1.2" viewBox="0 0 1024 1024">
  <path fill="none" stroke="black" d="M702,577c60.51-70.59,28.64-185.75-46.68-231.82-118.89-72.73-299.94-5.16-357.18,117.47-40.55,86.86,15.26,124.16,92.83,139.89,70.58,14.31,109.46,15.91,166.04,66.96,21.44,19.34,33.52,44.2,51.47,61.53,12.95,12.5,21.35,6.06,30.49-6.55,29.23-40.32,1.46-76.43,7.47-119.53,5.07-1.64,10.45-1.85,15.55-3.45,15-4.7,28.6-13.84,40.01-24.49-13.91,16.23-32.1,26.34-53.52,28.98-6.22,41.19,19.02,72.44-3.97,113.03-9.7,17.13-21.35,28.93-38.02,11.99-17.6-17.88-28.97-40.75-49.48-59.52-56.69-51.87-97.36-53.07-168.19-67.81-71.59-14.89-129.69-49.45-96.3-132.66,54.02-134.64,262.85-210.11,380.95-114.98,59.76,48.15,89.95,163.61,28.54,220.96Z"/>
  <path fill="none" stroke="black" d="M710.99,490c-.42,24.98-9.16,52.68-26.48,71.01-33.52,35.47-55.04,9.89-92.5,2.49-44.51-8.79-71.33,2.91-112.8,12.21-33.33,7.47-63.31,9.01-97.2,3.29,49.13-22.89,86.41-63.12,116.61-107.08,64.96,30.06,148.93,78.55,212.38,18.09Z"/>
  <path fill="none" stroke="black" d="M530,400.99c19.64-22.61,45.47-38.66,71.99-51.98-109.12-30.29-228.37,26.91-281.99,123.98,50.34-35.83,113.49-49.6,173.37-30.17l34.13-39.81-31.72,40.77c-3.18,1.6-23.28-4.66-28.57-5.5-54.51-8.62-108.58,6.23-151.21,40.72,50.02-102.48,177.68-164.43,289.01-130.52,1.67,1.31.57,1.53-.73,2.31-8.21,4.92-19.27,8.36-28.2,13.8-16.78,10.23-30.95,24.07-46.09,36.4Z"/>
  <path fill="none" stroke="black" d="M668.6,386.39c21,22.25,51.72,69.04,19.87,93.58-48.3,37.22-125.11-3.77-171.41-26.57l.99-2.85c32.23-37.75,70.36-73.15,119.25-87.26,11.66,5.96,22.32,13.59,31.29,23.1Z"/>
  <path fill="none" stroke="black" d="M623.99,599.04c-12.71,36.14,19.16,75.38-2.49,108.94-16.77-23.39-34.2-46.01-56.49-64.49,2.42-.28,6.22,3.46,8,5,19.17,16.55,34.02,37.29,48.98,57.51,14.22-27.09-2.34-55.8-2.96-83.51-.11-4.75,2.75-21.02,1-23.01-42.88-22.99-86.73-12.67-131.02-1.46,25.16,10.8,49.91,22.88,71.46,40.02l3.02,3.98c-24.51-18.07-50.8-34.77-80.49-43.02.2-1.56,1.45-1.56,2.61-1.88,46.44-12.87,93.53-21.64,138.38,1.93Z"/>
  <path fill="none" stroke="black" d="M476,464.01c-20.01,28.07-45.09,56.76-73.69,76.8-26.38,18.49-59.86,38.39-84.83,5.21-18.54-24.63,2.04-41.83,21.62-55.43,40.34-28.02,88.72-38.21,136.9-26.59Z"/>
</svg>
